<?xml version="1.0" encoding="utf-8"?>
<!-- Generator: Adobe Illustrator 25.0.0, SVG Export Plug-In . SVG Version: 6.00 Build 0)  -->
<svg version="1.1" xmlns="http://www.w3.org/2000/svg" xmlns:xlink="http://www.w3.org/1999/xlink" x="0px" y="0px"
	 viewBox="0 0 1000 1000" style="enable-background:new 0 0 1000 1000;" xml:space="preserve">
<style type="text/css">
	.st0{fill:url(#_x38__1_);}
	.st1{fill:url(#_x37__1_);}
	.st2{fill:url(#_x36__1_);}
	.st3{fill:url(#_x35__1_);}
	.st4{fill:url(#_x34__1_);}
	.st5{fill:url(#_x33__1_);}
	.st6{fill:url(#_x32__1_);}
	.st7{fill:url(#_x31__1_);}
	.st8{fill:#FFFFFF;}
	.st9{fill:url(#Logomark_18_);}
	.st10{fill:url(#Logotype_14_);}
	.st11{fill:url(#Logomark_20_);}
	.st12{fill:url(#Logomark_21_);}
	.st13{fill:url(#Logomark_22_);}
	.st14{fill:url(#Logotype_15_);}
	.st15{fill:url(#Logomark_24_);}
	.st16{fill:url(#Logomark_26_);}
</style>
<g id="Fill">
</g>
<g id="Logo_-_Vertical_Position__x28_White_x29_">
</g>
<g id="Logo_-_Vertical_Position__x28_Black_x29_">
</g>
<g id="Logo_-_Vertical_Position__x28_Orange_x29_">
</g>
<g id="Logotype__x28_White_x29_">
</g>
<g id="Logotype__x28_Black_x29_">
</g>
<g id="Logotype__x28_Orange_x29_">
</g>
<g id="Logo_-_Horizontal_Position__x28_White_x29_">
</g>
<g id="Logo_-_Horizontal_Position__x28_Black_x29_">
</g>
<g id="Logo_-_Horizontal_Position__x28_Orange_x29_">
</g>
<g id="Logomark__x28_White_x29_">
</g>
<g id="Logomark__x28_Black_x29_">
	<path id="Logomark_25_" d="M823.76,180.85v-0.13c-0.3-10.79-2.93-21.36-8.24-30.57c-0.62-1.05-1.93-1.48-3.06-0.97
		c-15.92,7.01-227.98,102.88-231.55,104.51c-59.99,27.54-114.23,53.01-137.64,65.38c-78.72,41.68-118.5,108.89-120.32,196.15
		c-0.01,0.95,0.08,6.49,0.17,11.73c0.05,2.57,3.42,3.49,4.73,1.28c10.23-17.14,38.47-53.93,92.39-53.93
		c61.07,0,105.97,49.87,105.97,105.97c0,57.83-46.19,105.97-105.97,105.97c-83.55,0-130.82-80.35-130.82-171.87
		c0-92.94,43.02-166.54,119.22-214.05c6.09-3.81,12.4-7.43,18.92-10.9c17.58-9.29,52.9-26.25,105.21-50.49c0.03,0,0.05,0,0.08-0.03
		c0.24-0.11,0.48-0.21,0.67-0.3c0.05-0.03,0.08-0.05,0.13-0.08c2.04-1.02,1.58-4.16-0.78-4.54c-1.32-0.19-2.66-0.38-4-0.56
		c-14.06-1.96-29.01-3.38-43.64-3.38c-171.48,0-309.03,139.03-309.03,310.51c0,170.43,144.45,310.48,310.18,310.48
		c197.53,0,310.18-164.81,310.18-310.17c0-65.46-17.54-121.48-52.13-171.57c9.69-4.7,19-9.37,27.97-14.6
		c17.12-9.96,29.93-24.37,36.5-42.94c6.04-17.04,5.9-36.18,1.26-53.55c-0.38-1.42-1.93-2.15-3.25-1.61
		c-36.53,15.11-117.32,49.87-117.32,49.87l-12.62-10.34c0,0,80.13-34.93,108.76-47.79C809.83,237.53,824.48,208.52,823.76,180.85z"
		/>
</g>
<g id="Logomark__x28_Orange_x29_">
</g>
<g id="Logo_-_Vertical_Position__x28_White_x29___x2B__TM">
</g>
<g id="Logo_-_Vertical_Position__x28_Black_x29___x2B__TM">
</g>
<g id="Logo_-_Vertical_Position__x28_Orange_x29___x2B__TM">
</g>
<g id="Logotype__x28_White_x29___x2B__TM">
</g>
<g id="Logotype__x28_Black_x29___x2B__TM">
</g>
<g id="Logotype__x28_Orange_x29___x2B__TM">
</g>
<g id="Logo_-_Horizontal_Position__x28_White_x29___x2B__TM">
</g>
<g id="Logo_-_Horizontal_Position__x28_Black_x29___x2B__TM">
</g>
<g id="Logo_-_Horizontal_Position__x28_Orange_x29___x2B__TM">
</g>
<g id="Logomark__x28_White_x29___x2B__TM">
</g>
<g id="Logomark__x28_Black_x29___x2B__TM">
</g>
<g id="Logomark__x28_Orange_x29___x2B__TM">
</g>
</svg>
