<?xml version="1.0" encoding="utf-8"?>
<!-- Generator: Adobe Illustrator 25.0.0, SVG Export Plug-In . SVG Version: 6.00 Build 0)  -->
<svg version="1.1" xmlns="http://www.w3.org/2000/svg" xmlns:xlink="http://www.w3.org/1999/xlink" x="0px" y="0px"
	 viewBox="0 0 1500 1100" style="enable-background:new 0 0 1500 1100;" xml:space="preserve">
<style type="text/css">
	.st0{fill:url(#_x38__1_);}
	.st1{fill:url(#_x37__1_);}
	.st2{fill:url(#_x36__1_);}
	.st3{fill:url(#_x35__1_);}
	.st4{fill:url(#_x34__1_);}
	.st5{fill:url(#_x33__1_);}
	.st6{fill:url(#_x32__1_);}
	.st7{fill:url(#_x31__1_);}
	.st8{fill:#FFFFFF;}
	.st9{fill:url(#Logomark_18_);}
	.st10{fill:url(#Logotype_14_);}
	.st11{fill:url(#Logomark_20_);}
	.st12{fill:url(#Logomark_21_);}
	.st13{fill:url(#Logomark_22_);}
	.st14{fill:url(#Logotype_15_);}
	.st15{fill:url(#Logomark_24_);}
	.st16{fill:url(#Logomark_26_);}
</style>
<g id="Fill">
</g>
<g id="Logo_-_Vertical_Position__x28_White_x29_">
</g>
<g id="Logo_-_Vertical_Position__x28_Black_x29_">
</g>
<g id="Logo_-_Vertical_Position__x28_Orange_x29_">
</g>
<g id="Logotype__x28_White_x29_">
</g>
<g id="Logotype__x28_Black_x29_">
</g>
<g id="Logotype__x28_Orange_x29_">
</g>
<g id="Logo_-_Horizontal_Position__x28_White_x29_">
</g>
<g id="Logo_-_Horizontal_Position__x28_Black_x29_">
</g>
<g id="Logo_-_Horizontal_Position__x28_Orange_x29_">
</g>
<g id="Logomark__x28_White_x29_">
</g>
<g id="Logomark__x28_Black_x29_">
</g>
<g id="Logomark__x28_Orange_x29_">
</g>
<g id="Logo_-_Vertical_Position__x28_White_x29___x2B__TM">
</g>
<g id="Logo_-_Vertical_Position__x28_Black_x29___x2B__TM">
</g>
<g id="Logo_-_Vertical_Position__x28_Orange_x29___x2B__TM">
	<g id="Logo_3_">
		<path id="Logotype_9_" d="M184.83,666.29c0-6.14-3.27-9.01-9.01-9.01h-16.78v-33.98h39.3c18.42,0,26.2,7.78,26.2,25.38v80.64
			c0,9.82-0.82,17.19-0.82,17.19h0.82c9-20.06,35.61-46.26,76.96-46.26c48.71,0,70.82,26.61,70.82,79.42v89.65
			c0,6.14,3.28,9.01,9,9.01h16.78v33.98h-38.89c-18.42,0-26.2-7.78-26.2-26.2v-97.43c0-29.06-6.14-51.99-39.3-51.99
			c-31.52,0-56.9,21.29-65.5,51.17c-2.86,8.19-3.68,17.6-3.68,27.43v97.02h-39.71V666.29z M546.3,783.37h9.01v-2.05
			c0-36.43-13.51-49.53-45.85-49.53c-9.82,0-33.98,2.46-33.98,15.96v11.87h-37.25v-20.47c0-33.98,51.58-38.89,71.64-38.89
			c67.14,0,85.15,35.21,85.15,81.05v88.01c0,6.14,3.27,9.01,9,9.01h16.78v33.98h-37.25c-18.42,0-25.79-9.01-25.79-23.74
			c0-6.96,0.82-12.28,0.82-12.28h-0.82c0,0-16.37,40.94-65.91,40.94c-35.62,0-70.41-21.7-70.41-63.04
			C421.44,787.46,511.5,783.37,546.3,783.37z M500.45,885.3c33.57,0,55.26-35.2,55.26-65.91v-6.96h-10.23
			c-29.88,0-83.92,1.64-83.92,39.71C461.56,868.92,474.25,885.3,500.45,885.3z M658.94,748.16c0-6.14-3.27-9.01-9-9.01h-16.78
			v-33.98h37.66c18.01,0,26.61,7.37,26.61,24.15v13.1c0,8.19-0.82,14.33-0.82,14.33h0.82c9.82-30.29,33.57-54.03,65.5-54.03
			c5.32,0,10.64,0.82,10.64,0.82v39.3c0,0-5.32-1.23-11.87-1.23c-25.38,0-48.71,18.01-58.13,48.71
			c-3.69,11.87-4.91,24.56-4.91,37.25v84.74h-39.71V748.16z M822.01,748.16c0-6.14-3.27-9.01-9.01-9.01h-16.78v-33.98h37.25
			c18.42,0,25.38,7.78,25.38,20.88c0,6.14-0.41,11.05-0.41,11.05h0.82c0,0,17.19-36.84,68.77-36.84
			c55.67,0,91.29,44.21,91.29,108.48c0,65.91-40.12,108.48-94.15,108.48c-45.85,0-63.45-33.16-63.45-33.16h-0.82
			c0,0,0.82,7.37,0.82,18.01v92.11h-39.71V748.16z M919.03,883.25c32.75,0,59.77-27.02,59.77-74.09c0-45.03-24.15-74.09-58.54-74.09
			c-30.7,0-59.77,21.7-59.77,74.5C860.49,846.41,880.55,883.25,919.03,883.25z M1068.25,748.16c0-6.14-3.27-9.01-9-9.01h-16.78
			v-33.98h38.89c18.42,0,26.2,7.78,26.2,26.2v137.95c0,6.14,3.27,9.01,9.01,9.01h16.78v33.98h-38.89c-18.42,0-26.2-7.78-26.2-26.2
			V748.16z M1069.07,623.31h35.61v41.35h-35.61V623.31z M1251.72,700.27c58.13,0,89.24,43.39,89.24,97.02
			c0,5.32-1.23,16.37-1.23,16.37h-151.05c2.45,44.21,34.39,69.18,71.23,69.18c35.62,0,60.58-24.15,60.58-24.15l17.19,28.25
			c0,0-30.7,30.29-79.83,30.29c-65.5,0-110.12-47.08-110.12-108.48C1147.74,742.84,1192.78,700.27,1251.72,700.27z M1300.02,784.6
			c-1.23-34.39-22.92-52.81-48.71-52.81c-30.29,0-54.85,18.42-60.99,52.81H1300.02z"/>
		<g id="Logomark_12_">
			<path id="TM_9_" d="M886.65,541.53h21.65v4.2h-8.26v22.85h-5.16v-22.85h-8.23V541.53z M932.63,541.53l-6.85,19.27l-6.85-19.27
				h-8.09v27.05h4.92v-22.41l7.85,22.41h4.37l7.85-22.41v22.41h4.96v-27.05H932.63z"/>
			<linearGradient id="Logomark_18_" gradientUnits="userSpaceOnUse" x1="662.7911" y1="140.7998" x2="914.1366" y2="531.7816">
				<stop  offset="0" style="stop-color:#F2914D"/>
				<stop  offset="1" style="stop-color:#E9532D"/>
			</linearGradient>
			<path id="Logomark_13_" class="st9" d="M958.44,126.83v-0.09c-0.19-7.11-1.93-14.08-5.43-20.15c-0.41-0.69-1.27-0.97-2.02-0.64
				c-10.49,4.62-150.27,67.81-152.62,68.89c-39.54,18.15-75.29,34.94-90.72,43.1c-51.89,27.47-78.11,71.77-79.31,129.29
				c-0.01,0.63,0.05,4.28,0.11,7.73c0.03,1.69,2.25,2.3,3.12,0.85c6.74-11.3,25.36-35.55,60.9-35.55
				c40.25,0,69.85,32.87,69.85,69.85c0,38.12-30.44,69.85-69.85,69.85c-55.07,0-86.23-52.96-86.23-113.29
				c0-61.26,28.36-109.77,78.58-141.09c4.02-2.51,8.17-4.9,12.47-7.18c11.59-6.12,34.87-17.3,69.35-33.28c0.02,0,0.04,0,0.05-0.02
				c0.16-0.07,0.32-0.14,0.44-0.19c0.04-0.02,0.05-0.04,0.09-0.05c1.34-0.67,1.04-2.74-0.51-2.99c-0.87-0.12-1.75-0.25-2.64-0.37
				c-9.27-1.29-19.12-2.23-28.77-2.23c-113.03,0-203.69,91.64-203.69,204.67c0,112.34,95.21,204.65,204.45,204.65
				c130.2,0,204.45-108.63,204.45-204.44c0-43.15-11.56-80.07-34.36-113.08c6.39-3.1,12.53-6.17,18.43-9.62
				c11.29-6.56,19.73-16.06,24.06-28.31c3.98-11.23,3.89-23.85,0.83-35.29c-0.25-0.94-1.27-1.42-2.14-1.06
				c-24.08,9.96-77.33,32.87-77.33,32.87l-8.32-6.81c0,0,52.81-23.02,71.69-31.5C949.26,164.2,958.92,145.07,958.44,126.83z"/>
		</g>
	</g>
</g>
<g id="Logotype__x28_White_x29___x2B__TM">
</g>
<g id="Logotype__x28_Black_x29___x2B__TM">
</g>
<g id="Logotype__x28_Orange_x29___x2B__TM">
</g>
<g id="Logo_-_Horizontal_Position__x28_White_x29___x2B__TM">
</g>
<g id="Logo_-_Horizontal_Position__x28_Black_x29___x2B__TM">
</g>
<g id="Logo_-_Horizontal_Position__x28_Orange_x29___x2B__TM">
</g>
<g id="Logomark__x28_White_x29___x2B__TM">
</g>
<g id="Logomark__x28_Black_x29___x2B__TM">
</g>
<g id="Logomark__x28_Orange_x29___x2B__TM">
</g>
</svg>
