<?xml version="1.0" encoding="utf-8"?>
<!-- Generator: Adobe Illustrator 25.0.0, SVG Export Plug-In . SVG Version: 6.00 Build 0)  -->
<svg version="1.1" xmlns="http://www.w3.org/2000/svg" xmlns:xlink="http://www.w3.org/1999/xlink" x="0px" y="0px"
	 viewBox="0 0 1500 600" style="enable-background:new 0 0 1500 600;" xml:space="preserve">
<style type="text/css">
	.st0{fill:url(#_x38__1_);}
	.st1{fill:url(#_x37__1_);}
	.st2{fill:url(#_x36__1_);}
	.st3{fill:url(#_x35__1_);}
	.st4{fill:url(#_x34__1_);}
	.st5{fill:url(#_x33__1_);}
	.st6{fill:url(#_x32__1_);}
	.st7{fill:url(#_x31__1_);}
	.st8{fill:#FFFFFF;}
	.st9{fill:url(#Logomark_18_);}
	.st10{fill:url(#Logotype_14_);}
	.st11{fill:url(#Logomark_20_);}
	.st12{fill:url(#Logomark_21_);}
	.st13{fill:url(#Logomark_22_);}
	.st14{fill:url(#Logotype_15_);}
	.st15{fill:url(#Logomark_24_);}
	.st16{fill:url(#Logomark_26_);}
</style>
<g id="Fill">
</g>
<g id="Logo_-_Vertical_Position__x28_White_x29_">
</g>
<g id="Logo_-_Vertical_Position__x28_Black_x29_">
</g>
<g id="Logo_-_Vertical_Position__x28_Orange_x29_">
</g>
<g id="Logotype__x28_White_x29_">
</g>
<g id="Logotype__x28_Black_x29_">
	<path id="Logotype_25_" d="M184.83,157.54c0-6.14-3.27-9.01-9.01-9.01h-16.78v-33.98h39.3c18.42,0,26.2,7.78,26.2,25.38v80.64
		c0,9.82-0.82,17.19-0.82,17.19h0.82c9-20.06,35.61-46.26,76.96-46.26c48.71,0,70.82,26.61,70.82,79.42v89.65
		c0,6.14,3.28,9.01,9,9.01h16.78v33.98h-38.89c-18.42,0-26.2-7.78-26.2-26.2v-97.43c0-29.06-6.14-51.99-39.3-51.99
		c-31.52,0-56.9,21.29-65.5,51.17c-2.86,8.19-3.68,17.6-3.68,27.43v97.02h-39.71V157.54z M546.3,274.62h9.01v-2.05
		c0-36.43-13.51-49.53-45.85-49.53c-9.82,0-33.98,2.46-33.98,15.96v11.87h-37.25v-20.47c0-33.98,51.58-38.89,71.64-38.89
		c67.14,0,85.15,35.21,85.15,81.05v88.01c0,6.14,3.27,9.01,9,9.01h16.78v33.98h-37.25c-18.42,0-25.79-9.01-25.79-23.74
		c0-6.96,0.82-12.28,0.82-12.28h-0.82c0,0-16.37,40.94-65.91,40.94c-35.62,0-70.41-21.7-70.41-63.04
		C421.44,278.71,511.5,274.62,546.3,274.62z M500.45,376.55c33.57,0,55.26-35.2,55.26-65.91v-6.96h-10.23
		c-29.88,0-83.92,1.64-83.92,39.71C461.56,360.17,474.25,376.55,500.45,376.55z M658.94,239.42c0-6.14-3.27-9.01-9-9.01h-16.78
		v-33.98h37.66c18.01,0,26.61,7.37,26.61,24.15v13.1c0,8.19-0.82,14.33-0.82,14.33h0.82c9.82-30.29,33.57-54.03,65.5-54.03
		c5.32,0,10.64,0.82,10.64,0.82v39.3c0,0-5.32-1.23-11.87-1.23c-25.38,0-48.71,18.01-58.13,48.71c-3.69,11.87-4.91,24.56-4.91,37.25
		v84.74h-39.71V239.42z M822.01,239.42c0-6.14-3.27-9.01-9.01-9.01h-16.78v-33.98h37.25c18.42,0,25.38,7.78,25.38,20.88
		c0,6.14-0.41,11.05-0.41,11.05h0.82c0,0,17.19-36.84,68.77-36.84c55.67,0,91.29,44.21,91.29,108.48
		c0,65.91-40.12,108.48-94.15,108.48c-45.85,0-63.45-33.16-63.45-33.16h-0.82c0,0,0.82,7.37,0.82,18.01v92.11h-39.71V239.42z
		 M919.03,374.5c32.75,0,59.77-27.02,59.77-74.09c0-45.03-24.15-74.09-58.54-74.09c-30.7,0-59.77,21.7-59.77,74.5
		C860.49,337.66,880.55,374.5,919.03,374.5z M1068.25,239.42c0-6.14-3.27-9.01-9-9.01h-16.78v-33.98h38.89
		c18.42,0,26.2,7.78,26.2,26.2v137.95c0,6.14,3.27,9.01,9.01,9.01h16.78v33.98h-38.89c-18.42,0-26.2-7.78-26.2-26.2V239.42z
		 M1069.07,114.56h35.61v41.35h-35.61V114.56z M1251.72,191.52c58.13,0,89.24,43.39,89.24,97.02c0,5.32-1.23,16.37-1.23,16.37
		h-151.05c2.45,44.21,34.39,69.18,71.23,69.18c35.62,0,60.58-24.15,60.58-24.15l17.19,28.25c0,0-30.7,30.29-79.83,30.29
		c-65.5,0-110.12-47.08-110.12-108.48C1147.74,234.09,1192.78,191.52,1251.72,191.52z M1300.02,275.85
		c-1.23-34.39-22.92-52.81-48.71-52.81c-30.29,0-54.85,18.42-60.99,52.81H1300.02z"/>
</g>
<g id="Logotype__x28_Orange_x29_">
</g>
<g id="Logo_-_Horizontal_Position__x28_White_x29_">
</g>
<g id="Logo_-_Horizontal_Position__x28_Black_x29_">
</g>
<g id="Logo_-_Horizontal_Position__x28_Orange_x29_">
</g>
<g id="Logomark__x28_White_x29_">
</g>
<g id="Logomark__x28_Black_x29_">
</g>
<g id="Logomark__x28_Orange_x29_">
</g>
<g id="Logo_-_Vertical_Position__x28_White_x29___x2B__TM">
</g>
<g id="Logo_-_Vertical_Position__x28_Black_x29___x2B__TM">
</g>
<g id="Logo_-_Vertical_Position__x28_Orange_x29___x2B__TM">
</g>
<g id="Logotype__x28_White_x29___x2B__TM">
</g>
<g id="Logotype__x28_Black_x29___x2B__TM">
</g>
<g id="Logotype__x28_Orange_x29___x2B__TM">
</g>
<g id="Logo_-_Horizontal_Position__x28_White_x29___x2B__TM">
</g>
<g id="Logo_-_Horizontal_Position__x28_Black_x29___x2B__TM">
</g>
<g id="Logo_-_Horizontal_Position__x28_Orange_x29___x2B__TM">
</g>
<g id="Logomark__x28_White_x29___x2B__TM">
</g>
<g id="Logomark__x28_Black_x29___x2B__TM">
</g>
<g id="Logomark__x28_Orange_x29___x2B__TM">
</g>
</svg>
