<?xml version="1.0" encoding="utf-8"?>
<!-- Generator: Adobe Illustrator 25.0.0, SVG Export Plug-In . SVG Version: 6.00 Build 0)  -->
<svg version="1.1" xmlns="http://www.w3.org/2000/svg" xmlns:xlink="http://www.w3.org/1999/xlink" x="0px" y="0px"
	 viewBox="0 0 2100 700" style="enable-background:new 0 0 2100 700;" xml:space="preserve">
<style type="text/css">
	.st0{fill:url(#_x38__1_);}
	.st1{fill:url(#_x37__1_);}
	.st2{fill:url(#_x36__1_);}
	.st3{fill:url(#_x35__1_);}
	.st4{fill:url(#_x34__1_);}
	.st5{fill:url(#_x33__1_);}
	.st6{fill:url(#_x32__1_);}
	.st7{fill:url(#_x31__1_);}
	.st8{fill:#FFFFFF;}
	.st9{fill:url(#Logomark_18_);}
	.st10{fill:url(#Logotype_14_);}
	.st11{fill:url(#Logomark_20_);}
	.st12{fill:url(#Logomark_21_);}
	.st13{fill:url(#Logomark_22_);}
	.st14{fill:url(#Logotype_15_);}
	.st15{fill:url(#Logomark_24_);}
	.st16{fill:url(#Logomark_26_);}
</style>
<g id="Fill">
</g>
<g id="Logo_-_Vertical_Position__x28_White_x29_">
</g>
<g id="Logo_-_Vertical_Position__x28_Black_x29_">
</g>
<g id="Logo_-_Vertical_Position__x28_Orange_x29_">
</g>
<g id="Logotype__x28_White_x29_">
</g>
<g id="Logotype__x28_Black_x29_">
</g>
<g id="Logotype__x28_Orange_x29_">
</g>
<g id="Logo_-_Horizontal_Position__x28_White_x29_">
</g>
<g id="Logo_-_Horizontal_Position__x28_Black_x29_">
</g>
<g id="Logo_-_Horizontal_Position__x28_Orange_x29_">
	<g id="Logo_6_">
		<path id="Logotype_12_" d="M758.05,259.45c0-6.14-3.27-9.01-9.01-9.01h-16.78v-33.98h39.3c18.42,0,26.2,7.78,26.2,25.38v80.64
			c0,9.82-0.82,17.19-0.82,17.19h0.82c9-20.06,35.61-46.26,76.96-46.26c48.71,0,70.82,26.61,70.82,79.42v89.65
			c0,6.14,3.28,9.01,9,9.01h16.78v33.98h-38.89c-18.42,0-26.2-7.78-26.2-26.2v-97.43c0-29.06-6.14-51.99-39.3-51.99
			c-31.52,0-56.9,21.29-65.5,51.17c-2.86,8.19-3.68,17.6-3.68,27.43v97.02h-39.71V259.45z M1119.51,376.53h9.01v-2.05
			c0-36.43-13.51-49.53-45.85-49.53c-9.82,0-33.98,2.46-33.98,15.96v11.87h-37.25v-20.47c0-33.98,51.58-38.89,71.64-38.89
			c67.14,0,85.15,35.21,85.15,81.05v88.01c0,6.14,3.27,9.01,9,9.01h16.78v33.98h-37.25c-18.42,0-25.79-9.01-25.79-23.74
			c0-6.96,0.82-12.28,0.82-12.28h-0.82c0,0-16.37,40.94-65.91,40.94c-35.62,0-70.41-21.7-70.41-63.04
			C994.66,380.62,1084.72,376.53,1119.51,376.53z M1073.67,478.46c33.57,0,55.26-35.2,55.26-65.91v-6.96h-10.23
			c-29.88,0-83.92,1.64-83.92,39.71C1034.78,462.09,1047.47,478.46,1073.67,478.46z M1232.16,341.33c0-6.14-3.27-9.01-9-9.01h-16.78
			v-33.98h37.66c18.01,0,26.61,7.37,26.61,24.15v13.1c0,8.19-0.82,14.33-0.82,14.33h0.82c9.82-30.29,33.57-54.03,65.5-54.03
			c5.32,0,10.64,0.82,10.64,0.82V336c0,0-5.32-1.23-11.87-1.23c-25.38,0-48.71,18.01-58.13,48.71c-3.69,11.87-4.91,24.56-4.91,37.25
			v84.74h-39.71V341.33z M1395.23,341.33c0-6.14-3.27-9.01-9.01-9.01h-16.78v-33.98h37.25c18.42,0,25.38,7.78,25.38,20.88
			c0,6.14-0.41,11.05-0.41,11.05h0.82c0,0,17.19-36.84,68.77-36.84c55.67,0,91.29,44.21,91.29,108.48
			c0,65.91-40.12,108.48-94.15,108.48c-45.85,0-63.45-33.16-63.45-33.16h-0.82c0,0,0.82,7.37,0.82,18.01v92.11h-39.71V341.33z
			 M1492.24,476.41c32.75,0,59.77-27.02,59.77-74.09c0-45.03-24.16-74.09-58.54-74.09c-30.7,0-59.77,21.7-59.77,74.5
			C1433.71,439.57,1453.76,476.41,1492.24,476.41z M1641.46,341.33c0-6.14-3.27-9.01-9-9.01h-16.78v-33.98h38.89
			c18.42,0,26.2,7.78,26.2,26.2V462.5c0,6.14,3.27,9.01,9.01,9.01h16.78v33.98h-38.89c-18.42,0-26.2-7.78-26.2-26.2V341.33z
			 M1642.28,216.47h35.61v41.35h-35.61V216.47z M1824.94,293.43c58.13,0,89.24,43.39,89.24,97.02c0,5.32-1.23,16.37-1.23,16.37
			H1761.9c2.45,44.21,34.39,69.18,71.23,69.18c35.62,0,60.58-24.15,60.58-24.15l17.19,28.25c0,0-30.7,30.29-79.83,30.29
			c-65.5,0-110.12-47.08-110.12-108.48C1720.96,336,1765.99,293.43,1824.94,293.43z M1873.24,377.76
			c-1.23-34.39-22.92-52.81-48.71-52.81c-30.29,0-54.85,18.42-60.99,52.81H1873.24z"/>
		<linearGradient id="Logomark_18_" gradientUnits="userSpaceOnUse" x1="313.0721" y1="144.7119" x2="569.6539" y2="535.6937">
			<stop  offset="0" style="stop-color:#F2914D"/>
			<stop  offset="1" style="stop-color:#E9532D"/>
		</linearGradient>
		<path id="Logomark_31_" class="st9" d="M612.64,133.67v-0.09c-0.19-7.11-1.93-14.08-5.43-20.15c-0.41-0.69-1.27-0.97-2.02-0.64
			c-10.49,4.62-150.27,67.81-152.62,68.89c-39.54,18.15-75.29,34.94-90.72,43.1c-51.89,27.47-78.11,71.77-79.31,129.29
			c-0.01,0.63,0.05,4.28,0.11,7.73c0.03,1.69,2.25,2.3,3.12,0.85c6.74-11.3,25.36-35.55,60.9-35.55c40.25,0,69.85,32.87,69.85,69.85
			c0,38.12-30.44,69.85-69.85,69.85c-55.07,0-86.23-52.96-86.23-113.29c0-61.26,28.36-109.77,78.58-141.09
			c4.02-2.51,8.17-4.9,12.47-7.18c11.59-6.12,34.87-17.3,69.35-33.28c0.02,0,0.04,0,0.05-0.02c0.16-0.07,0.32-0.14,0.44-0.19
			c0.04-0.02,0.05-0.04,0.09-0.05c1.34-0.67,1.04-2.74-0.51-2.99c-0.87-0.12-1.75-0.25-2.64-0.37c-9.27-1.29-19.12-2.23-28.77-2.23
			c-113.03,0-203.69,91.64-203.69,204.67c0,112.34,95.21,204.65,204.45,204.65c130.2,0,204.45-108.63,204.45-204.44
			c0-43.15-11.56-80.07-34.36-113.08c6.39-3.1,12.53-6.17,18.43-9.62c11.29-6.56,19.73-16.06,24.06-28.31
			c3.98-11.23,3.89-23.85,0.83-35.29c-0.25-0.94-1.27-1.42-2.14-1.06c-24.08,9.96-77.33,32.87-77.33,32.87l-8.32-6.81
			c0,0,52.81-23.02,71.69-31.5C603.46,171.03,613.11,151.91,612.64,133.67z"/>
	</g>
</g>
<g id="Logomark__x28_White_x29_">
</g>
<g id="Logomark__x28_Black_x29_">
</g>
<g id="Logomark__x28_Orange_x29_">
</g>
<g id="Logo_-_Vertical_Position__x28_White_x29___x2B__TM">
</g>
<g id="Logo_-_Vertical_Position__x28_Black_x29___x2B__TM">
</g>
<g id="Logo_-_Vertical_Position__x28_Orange_x29___x2B__TM">
</g>
<g id="Logotype__x28_White_x29___x2B__TM">
</g>
<g id="Logotype__x28_Black_x29___x2B__TM">
</g>
<g id="Logotype__x28_Orange_x29___x2B__TM">
</g>
<g id="Logo_-_Horizontal_Position__x28_White_x29___x2B__TM">
</g>
<g id="Logo_-_Horizontal_Position__x28_Black_x29___x2B__TM">
</g>
<g id="Logo_-_Horizontal_Position__x28_Orange_x29___x2B__TM">
</g>
<g id="Logomark__x28_White_x29___x2B__TM">
</g>
<g id="Logomark__x28_Black_x29___x2B__TM">
</g>
<g id="Logomark__x28_Orange_x29___x2B__TM">
</g>
</svg>
