<svg xmlns="http://www.w3.org/2000/svg" xmlns:xlink="http://www.w3.org/1999/xlink" viewBox="0 0 179.05 242.54"><defs><style>.cls-1{fill:url(#Harpie_Gradient);}</style><linearGradient id="Harpie_Gradient" x1="89.53" y1="242.54" x2="89.53" gradientUnits="userSpaceOnUse"><stop offset="0" stop-color="#7dc1ff"/><stop offset="1" stop-color="#3e59eb"/></linearGradient></defs><g id="Layer_2" data-name="Layer 2"><g id="Layer_1-2" data-name="Layer 1"><path class="cls-1" d="M89.63,242.54,22.87,181.78,0,67.4l1.68-2.29c.89-1.23,21.37-28.65,64.17-36.3L58.46,0,69.91,4.08c.18.07,18.33,6.49,35.19,8.69,56.49,7.37,72.71,52.12,73.37,54l.58,1.67L156.4,181.78ZM34.7,175.08l54.93,50,49.73-45.26c-20.37-11.25-72.78-42.6-94.8-78.27-8.45-13.69-10.72-26.94-6.75-39.4A44.75,44.75,0,0,1,45,48.53,90.66,90.66,0,0,0,13.83,70.66Zm129.69-99.2C134.72,78.24,93.63,87.39,89,105.13,86.74,113.68,91.5,133,146,168Zm-87.5-56,4.64,18.1L76.41,40.1c-.2.09-21,9.14-26.31,26-2.75,8.69-.91,18.32,5.45,28.63,5.63,9.12,13.61,18,22.62,26.41q-4.1-10.18-1.69-19.31C84.1,72.78,139,65.07,162.4,63.09c-6.85-11.79-23.8-32.92-59-37.51A187.58,187.58,0,0,1,76.89,19.83Z"/></g></g></svg>